<svg width="596" height="497" viewBox="0 0 596 497" fill="none" xmlns="http://www.w3.org/2000/svg">
  <g clip-path="url(#clip0_8546_48304)">
    <path
      d="M37.4487 452.16V438.635C38.2821 438.551 39.0385 438.417 39.8013 438.417C46.6667 438.417 53.5321 438.365 60.3975 438.417C68.5385 438.481 73.5513 443.545 73.577 451.66C73.577 460.037 73.6731 468.422 73.5385 476.806C73.4991 481.214 72.0158 485.487 69.3159 488.972C66.616 492.457 62.8483 494.96 58.5898 496.1C56.7087 496.612 54.7701 496.883 52.8205 496.907C42.2094 496.984 31.6026 496.984 21 496.907C9.10259 496.837 0.141051 488.01 0.0961789 476.081C-0.00211171 452.365 -0.00211171 428.648 0.0961789 404.931C0.147461 393.111 8.9808 384.336 20.7885 384.221C31.4722 384.114 42.1688 384.114 52.8782 384.221C64.7308 384.343 73.4423 393.092 73.5898 404.893C73.6539 409.88 73.5898 414.873 73.5898 419.802C71.5962 420.443 50.5641 420.604 47.0641 419.975C47.0641 417.501 47.1154 414.95 47.0641 412.399C47.0919 410.711 46.9437 409.024 46.6218 407.367C45.4487 402.547 41.6154 399.778 36.5834 399.906C34.3345 399.895 32.1512 400.663 30.4043 402.079C28.6574 403.495 27.4545 405.472 27 407.675C26.7345 408.892 26.5992 410.134 26.5962 411.38C26.5962 430.823 26.5962 450.266 26.5962 469.71C26.5834 471.401 26.8431 473.082 27.3654 474.69C28.9808 479.363 33.468 481.818 38.6859 481.1C40.9175 480.77 42.964 479.672 44.4733 477.995C45.9826 476.319 46.8602 474.169 46.9552 471.915C47.1987 466.402 47.077 460.864 47.0193 455.339C47.0193 453.243 46.1795 452.48 44.0641 452.345C41.9487 452.211 39.827 452.256 37.4487 452.16Z"
      fill="#076C71" />
    <path
      d="M111.218 496.838H85.0705C84.9871 495.601 84.8397 494.396 84.8397 493.198C84.8397 463.507 84.8397 433.807 84.8397 404.1C84.8397 401.869 84.7884 399.613 84.8397 397.414C85.1281 389.491 90.4038 384.248 98.3012 384.203C110.872 384.133 123.436 384.203 136.006 384.203C147.013 384.165 156.205 392.6 156.519 403.068C156.87 416.157 156.87 429.254 156.519 442.36C156.244 452.687 147.211 461.27 136.006 461.212C128.955 461.18 121.904 461.212 114.853 461.212C113.808 461.212 112.756 461.308 111.333 461.372V464.693C111.333 474.329 111.333 483.959 111.333 493.582C111.391 494.646 111.282 495.691 111.218 496.838ZM111.737 399.972C111.192 403.177 111.301 443.316 111.904 445.636C113.827 445.636 115.859 445.565 117.878 445.636C125.57 445.956 130.519 441.572 130.301 433.175C130.115 426.124 130.269 419.112 130.25 412.074C130.259 410.916 130.184 409.759 130.026 408.612C129.423 404.535 127.141 401.689 123.25 400.472C119.474 399.299 115.551 399.818 111.737 399.972Z"
      fill="#076C71" />
    <path
      d="M352.231 384.352H380.962L398.269 451.739H398.955C404.885 429.343 410.532 406.87 416.449 384.352H440.167C430.487 421.956 420.855 459.373 411.269 496.602C398.404 498 388.526 495.961 380.096 483.532C377.359 479.5 375.692 475.001 374.475 470.321C367.265 442.579 360.062 414.837 352.866 387.095C352.635 386.262 352.468 385.403 352.231 384.352Z"
      fill="#076C71" />
    <path
      d="M195.006 400.008V428.776H226.731V444.564H195.141C195.009 445.079 194.916 445.605 194.865 446.134C194.865 454.595 194.782 463.063 194.897 471.53C194.92 473.692 195.662 475.784 197.006 477.476C198.351 479.168 200.22 480.365 202.32 480.876C203.625 481.159 204.96 481.281 206.295 481.241C212.532 481.28 218.769 481.241 225.006 481.241H227.775C228.557 483.479 228.686 493.69 228.025 496.792C227.32 496.843 226.545 496.952 225.775 496.952C213.564 496.952 201.359 497.01 189.154 496.952C177.513 496.895 168.884 488.568 168.32 476.953C168.269 475.889 168.269 474.819 168.269 473.748V384.407C175.032 383.971 181.583 384.266 188.141 384.214C194.82 384.157 201.506 384.214 208.186 384.214H227.814C228.564 386.464 228.692 396.304 228.038 399.598C227.013 399.682 225.897 399.842 224.782 399.848C216.051 399.848 207.32 399.848 198.59 399.848C197.41 399.835 196.295 399.944 195.006 400.008Z"
      fill="#076C71" />
    <path
      d="M475.256 428.731H506.558C507.359 430.859 507.474 441.66 506.756 444.5H475.449C475.293 445.229 475.186 445.968 475.128 446.711C475.128 454.73 475.064 462.736 475.128 470.774C475.186 477.011 479.301 481.12 485.564 481.197C492.16 481.28 498.75 481.197 505.346 481.235C506.301 481.235 507.269 481.312 508.551 481.37C508.801 486.581 508.699 491.625 508.628 496.753C507.609 496.843 506.917 496.965 506.231 496.965C493.846 496.965 481.461 497.035 469.051 496.965C464.322 497.011 459.726 495.401 456.06 492.413C452.394 489.425 449.889 485.248 448.981 480.607C448.639 478.768 448.487 476.9 448.526 475.03C448.5 445.797 448.5 416.563 448.526 387.33V384.766C450.763 384.093 505.295 383.977 508.603 384.625C508.75 389.471 508.718 394.393 508.603 399.579C507.192 399.675 506.038 399.823 504.949 399.829C496.218 399.829 487.481 399.829 478.75 399.829C477.622 399.829 476.494 399.951 475.237 400.021L475.256 428.731Z"
      fill="#076C71" />
    <path
      d="M263.199 399.864H237.923C235.942 390.98 241 384.954 248.102 384.313C249.16 384.217 250.237 384.211 251.307 384.211H315.102C317.666 390.858 312.782 398.755 305.577 399.518C301.602 399.934 297.57 399.742 293.564 399.838C292.423 399.838 291.288 399.954 289.808 400.031C289.634 405.518 289.75 410.831 289.731 416.139C289.711 421.446 289.731 426.837 289.731 432.164V496.756H263.263C263.128 491.5 263.218 486.186 263.205 480.879C263.192 475.572 263.205 470.187 263.205 464.854V399.864H263.199Z"
      fill="#076C71" />
    <path
      d="M569.981 496.806H543.526V400.054C542.186 399.965 541.148 399.836 540.109 399.836C533.789 399.836 527.462 399.836 521.135 399.836C520.09 399.836 519.051 399.727 518.071 399.67C516.494 392.273 520.154 384.491 529.577 384.286C532.962 384.209 536.346 384.241 539.731 384.241H595.5C597.616 391.542 592.975 398.849 585.725 399.567C581.75 399.958 577.718 399.772 573.712 399.875C572.577 399.875 571.449 400.009 569.994 400.099L569.981 496.806Z"
      fill="#076C71" />
    <path
      d="M313.506 29.1415C312.97 30.5535 312.327 31.9228 311.583 33.2374C308.213 38.5991 303.806 43.2342 298.622 46.8713C297.064 47.993 295.417 48.7943 293.654 48.5251C291.723 48.5346 289.816 48.0893 288.089 47.2252C286.362 46.361 284.862 45.1023 283.712 43.551C283.391 43.1279 283.115 42.7305 282.872 42.3587C280.949 39.4614 281.058 38.0961 281.058 38.0961C284.756 20.7509 298.051 14.0781 298.051 14.0781L300.398 14.8089C304.885 15.9562 308.878 17.9305 311.974 21.52C313.949 23.802 314.718 26.2698 313.506 29.1415Z"
      fill="url(#paint0_linear_8546_48304)" />
    <path
      d="M347.763 104.951L346.615 104.246L345.333 103.471L345.263 103.426C342.622 101.708 340.135 99.8171 339.25 96.5993C338.707 94.7257 338.593 92.754 338.917 90.8304C340.731 81.4206 347.654 74.8056 357.038 73.1582C360.244 72.607 362.558 73.7543 364.09 76.4593C365.538 79.0233 367.07 81.4911 368.776 84.3371L369.596 85.6191C357.583 100.125 347.763 104.951 347.763 104.951Z"
      fill="url(#paint1_linear_8546_48304)" />
    <path
      d="M176.09 230.809C176.686 230.303 177.372 229.886 178.051 229.393C181.737 232.405 186.071 232.969 190.462 233.091C198.943 233.237 207.395 232.058 215.513 229.598C228.513 225.841 241.462 221.906 254.295 217.617C279.237 209.285 303.654 199.618 327.109 187.657C339.436 181.369 351.423 174.536 362.058 165.569C369.077 159.652 375.519 153.217 380.378 145.371C390.513 130.43 384.295 111.982 384.135 111.514C381.077 100.181 373.141 90.2074 373.141 90.2074L371.564 91.7842C371.404 91.906 371.25 92.0342 371.096 92.1624L367.423 95.6686L354.135 108.36C354.462 109.245 354.731 109.988 355.013 110.719C356.192 113.796 357.481 116.834 358.551 119.949C360.609 125.981 359.436 131.398 355.013 135.974C353.189 137.929 351.231 139.753 349.154 141.436C338.537 149.865 327.081 157.181 314.968 163.268C289.859 175.773 263.539 185.126 236.763 193.394C235.565 193.734 234.287 193.646 233.148 193.144C228.127 191.265 223.475 188.518 219.404 185.029C208.577 175.972 200.263 164.947 193.814 152.441C193.444 151.744 193.226 150.977 193.173 150.189C193.12 149.402 193.233 148.612 193.507 147.871C197.68 134.333 202.173 120.911 207.327 107.713C214.25 90.0151 222.071 72.7467 232.071 56.5296C237.032 48.4723 242.462 40.7484 249.148 33.9859C251.782 31.3031 255.023 29.2918 258.596 28.1208C265.276 25.8774 271.224 27.0952 276.333 32.0373C276.872 32.5565 277.449 33.0244 278.077 33.5885C278.154 33.3321 278.237 33.0821 278.321 32.8257C282.25 20.7943 289.507 14.5318 292.744 12.2306H292.776C293.635 11.6281 294.205 11.3012 294.34 11.2243C293.269 10.4743 292.301 9.72435 291.269 9.06413C286.432 6.02622 281.193 3.6809 275.705 2.09654C260.923 -2.28144 247.551 0.28253 235.648 10.2179C231.023 14.1072 226.802 18.4538 223.051 23.1916C212.439 36.64 203.316 51.1986 195.84 66.6124C177.474 103.963 164.821 143.333 155.013 183.683C153 191.946 153.936 199.759 157.398 207.4C157.641 207.945 157.795 208.528 157.981 209.054C150.72 214.264 145.018 221.356 141.487 229.566C135.789 242.385 134.096 255.846 137 269.551C141.199 289.421 153.186 302.241 172.853 307.632C184.769 310.901 196.699 310.196 208.532 307.235C228.936 302.107 246.872 292.062 263.148 278.935C270.298 273.034 277.744 267.499 285.455 262.352C293.231 257.282 301.282 252.737 310.045 249.533C322.148 245.103 333.494 246.661 344.25 253.5C349.112 256.674 353.466 260.564 357.167 265.038C357.861 265.782 358.309 266.722 358.449 267.73C361.351 259.862 366.094 252.803 372.282 247.142C371.641 246.379 371.128 245.751 370.577 245.167C367.154 241.552 363.955 237.668 360.231 234.386C346.462 222.207 330.398 218.861 312.609 222.47C303.107 224.49 293.904 227.721 285.224 232.085C274.795 237.213 265 243.366 255.333 249.757C244.776 256.756 234.276 263.807 223.628 270.621C217.135 274.876 210.125 278.286 202.769 280.768C198.423 282.191 193.962 283.197 189.385 282.896C177.34 282.114 169.173 275.377 163.295 265.359C162.656 264.185 162.177 262.93 161.872 261.628C160.423 256.205 161.295 251.02 163.699 246.045C166.641 239.995 171.019 235.117 176.09 230.809ZM182.821 179.53C184.372 174.402 186.18 169.396 187.885 164.338C188.075 163.91 188.289 163.492 188.526 163.088C190.398 165.966 192.039 168.671 193.859 171.248C195.68 173.825 197.641 176.434 199.712 178.876C201.775 181.339 203.966 183.693 206.276 185.927C208.593 188.141 211.033 190.223 213.583 192.164C216.148 194.087 218.846 195.779 221.731 197.727C221.468 197.962 221.177 198.165 220.866 198.33C213.635 200.535 206.487 203.131 198.859 203.605C196.379 203.791 193.886 203.67 191.436 203.246C185.866 202.182 182.083 197.477 181.551 191.446C181.203 187.437 181.634 183.4 182.821 179.555V179.53Z"
      fill="url(#paint2_linear_8546_48304)" />
    <path
      d="M407.725 233.344C394.597 233.328 381.945 238.253 372.282 247.138L372.455 247.343C373.436 246.587 374.269 245.959 375.096 245.318C386.032 236.735 398.455 232.882 412.276 234.042C423.975 235.048 434.987 239.989 443.516 248.059C452.046 256.129 457.587 266.851 459.237 278.476C459.526 280.431 460.019 282.405 460.141 284.354C459.767 270.7 454.081 257.731 444.292 248.205C434.503 238.679 421.384 233.347 407.725 233.344Z"
      fill="#076C71" />
    <path
      d="M460.173 285.39C460.173 285.089 460.173 284.794 460.173 284.499C460.177 284.448 460.177 284.396 460.173 284.345C459.981 270.549 454.341 257.389 444.483 247.735C434.625 238.082 421.349 232.718 407.552 232.814C393.754 232.91 380.554 238.458 370.832 248.248C361.109 258.038 355.653 271.275 355.653 285.073C355.653 298.87 361.109 312.107 370.832 321.897C380.554 331.687 393.754 337.235 407.552 337.331C421.349 337.428 434.625 332.064 444.483 322.41C454.341 312.756 459.981 299.596 460.173 285.8C460.18 285.666 460.18 285.525 460.173 285.39ZM366 277.269C366.052 272.564 369.045 269.609 373.738 269.577C378.43 269.545 383.007 269.577 387.641 269.577C388.52 269.577 389.391 269.577 390.648 269.577V266.519C390.648 261.891 390.648 257.25 390.609 252.616C390.609 249.802 391.667 247.488 394.103 246.136C395.525 245.412 397.097 245.03 398.693 245.02C404.834 244.898 410.988 244.866 417.129 245.02C422.622 245.142 425.218 247.95 425.237 253.43C425.237 257.795 425.237 262.16 425.237 266.532C425.237 267.41 425.237 268.295 425.237 269.41C426.148 269.487 426.911 269.596 427.673 269.596C432.302 269.596 436.943 269.634 441.571 269.551C446.846 269.455 450.058 273.044 449.904 277.801C449.738 284.127 449.821 290.46 449.84 296.787C449.877 298.04 449.592 299.281 449.013 300.393C448.434 301.505 447.58 302.45 446.532 303.139C444.488 304.588 443.257 304.421 441.635 302.447C439.411 299.755 436.693 297.806 433.238 297.114C431.913 296.884 430.67 296.319 429.625 295.473C428.581 294.627 427.77 293.528 427.27 292.281C425.943 289.262 424.776 286.185 423.475 283.159C422.903 281.754 422.073 280.469 421.026 279.371C420.949 280.102 420.872 280.839 420.827 281.294C418.218 282.576 415.77 283.602 413.462 284.909C411.282 286.14 411.238 287.973 413.244 289.499C413.987 289.979 414.794 290.353 415.641 290.608C418.744 291.755 419.93 293.601 419.154 296.806C418.718 298.357 418.723 300 419.168 301.548C419.612 303.097 420.48 304.492 421.673 305.575C422.74 306.594 423.568 307.836 424.099 309.212C424.629 310.588 424.85 312.065 424.744 313.536C424.667 315.132 424.859 316.741 424.635 318.337C424.455 319.587 423.814 320.766 423.186 322.542L424.693 323.542C423.872 326.99 421.686 328.721 418.237 328.715C411.549 328.715 404.868 328.715 398.193 328.715C393.513 328.715 390.712 326.067 390.648 321.337C390.584 316.85 390.648 312.427 390.648 307.972V305.35L391.18 305.222C391.473 305.786 391.73 306.369 391.949 306.966C393.231 311.228 394.462 315.504 395.795 319.786C396.635 322.51 396.763 323.035 399.853 322.83C400.738 322.773 401.635 322.882 402.52 322.83C402.911 322.83 403.552 322.574 403.603 322.337C403.656 322.094 403.655 321.843 403.601 321.6C403.547 321.358 403.44 321.13 403.289 320.933C402.757 320.497 402.108 320.23 401.423 320.164C400.748 320.156 400.097 319.913 399.582 319.477C399.067 319.04 398.721 318.438 398.603 317.773C398.352 317.109 398.168 316.422 398.052 315.722C397.77 311.017 397.411 306.312 397.346 301.62C397.368 300.632 397.594 299.66 398.008 298.763C398.423 297.866 399.018 297.065 399.757 296.409C401.109 295.105 402.153 293.515 402.811 291.757C403.47 289.998 403.728 288.114 403.564 286.242C403.484 284.818 403.484 283.391 403.564 281.967C403.693 279.961 404.475 279.403 406.353 279.935C407.631 280.322 408.871 280.824 410.058 281.435C412.282 282.55 414.135 282.044 416.052 280.256L413.488 276.198C412.669 275.034 412.294 273.615 412.43 272.198C412.441 271.055 412.101 269.937 411.455 268.993C409.834 266.397 409.77 266.429 412.052 264.173C412.415 263.764 412.758 263.336 413.077 262.891C408.116 262.705 404.013 264.013 400.673 266.968C397.212 270.025 394.058 273.442 390.891 276.813C387.84 280.07 384.757 283.223 381.026 285.755C376.161 289.05 372.468 293.511 369.366 298.466C368.891 299.216 368.423 299.973 367.923 300.71C367.84 300.831 367.622 300.863 367.391 300.972C366.109 299.703 366 298.133 366 296.498C366 290.088 365.943 283.678 366 277.269Z"
      fill="url(#paint3_radial_8546_48304)" />
  </g>
  <defs>
    <linearGradient id="paint0_linear_8546_48304" x1="312.404" y1="21.9239" x2="281.777"
      y2="40.5653" gradientUnits="userSpaceOnUse">
      <stop stop-color="#2C8E92" />
      <stop offset="1" stop-color="#055355" />
    </linearGradient>
    <linearGradient id="paint1_linear_8546_48304" x1="385.949" y1="67.7034" x2="114.924"
      y2="232.682" gradientUnits="userSpaceOnUse">
      <stop stop-color="#2C8E92" />
      <stop offset="1" stop-color="#055355" />
    </linearGradient>
    <linearGradient id="paint2_linear_8546_48304" x1="374.417" y1="91.5599" x2="119.321"
      y2="246.839" gradientUnits="userSpaceOnUse">
      <stop stop-color="#2C8E92" />
      <stop offset="1" stop-color="#055355" />
    </linearGradient>
    <radialGradient id="paint3_radial_8546_48304" cx="0" cy="0" r="1" gradientUnits="userSpaceOnUse"
      gradientTransform="translate(407.725 285.8) scale(52.4551 52.4524)">
      <stop stop-color="#055355" />
      <stop offset="1" stop-color="#2C8E92" />
    </radialGradient>
    <clipPath id="clip0_8546_48304">
      <rect width="596" height="497" fill="white" />
    </clipPath>
  </defs>
</svg>